<svg xmlns="http://www.w3.org/2000/svg" width="32" height="32"><path fill="#8e8e93" d="M25.333 16c0-2.535-.01-2.853-.056-3.849-.152-3.386-2.036-5.273-5.428-5.428-.996-.046-1.314-.057-3.85-.057-2.534 0-2.85.011-3.847.057-3.39.154-5.273 2.036-5.43 5.428-.045.996-.055 1.314-.055 3.848 0 2.535.01 2.853.055 3.848.157 3.39 2.038 5.274 5.43 5.43.996.045 1.313.056 3.848.056s2.853-.011 3.849-.056c3.385-.156 5.275-2.036 5.428-5.43.046-.995.056-1.313.056-3.848zM32 16c0 8.836-7.164 16-16 16S0 24.835 0 16C0 7.161 7.164 0 16 0s16 7.162 16 16zm-12.89 0a3.111 3.111 0 11-6.222 0 3.111 3.111 0 016.222 0zm2.991-4.982a1.12 1.12 0 10-2.24 0 1.12 1.12 0 002.24 0zm-1.31 4.981a4.793 4.793 0 10-9.585.002A4.793 4.793 0 0020.793 16zm2.806-3.77c.044.984.054 1.278.054 3.77 0 2.493-.01 2.787-.054 3.772-.116 2.508-1.294 3.71-3.826 3.826-.984.044-1.28.054-3.772.054s-2.788-.01-3.771-.054c-2.537-.116-3.71-1.32-3.826-3.826-.044-.985-.055-1.28-.055-3.772s.01-2.786.055-3.77c.115-2.512 1.294-3.711 3.826-3.827.984-.045 1.28-.054 3.77-.054 2.492 0 2.789.01 3.773.054 2.53.116 3.71 1.315 3.826 3.826z" opacity=".7"/></svg>