<svg xmlns="http://www.w3.org/2000/svg" width="32" height="32"><path fill="#8e8e93" d="M31.995 15.999c0 8.82-7.176 15.995-15.996 15.995S.003 24.818.003 16C.003 7.179 7.18.003 16 .003s15.996 7.176 15.996 15.996zm-7.024-5.565a7.338 7.338 0 01-2.114.58 3.696 3.696 0 001.62-2.038c-.713.424-1.5.729-2.34.894a3.682 3.682 0 00-6.274 3.36 10.453 10.453 0 01-7.587-3.85 3.667 3.667 0 00-.498 1.853c0 1.277.65 2.404 1.637 3.063a3.664 3.664 0 01-1.667-.46v.047a3.683 3.683 0 002.952 3.61 3.685 3.685 0 01-1.662.061 3.685 3.685 0 003.44 2.558 7.39 7.39 0 01-5.452 1.524 10.415 10.415 0 005.644 1.654c6.773 0 10.476-5.61 10.476-10.474 0-.16-.004-.32-.011-.479a7.44 7.44 0 001.836-1.903z" opacity=".7"/></svg>