<svg xmlns="http://www.w3.org/2000/svg" width="106" height="18"><path fill="#00bfa5" d="M9 13.774L14.55 18l-2.1-6.887L18 7.043h-6.75L9 0 6.75 7.043H0l5.55 4.07L3.45 18zm22 0L36.55 18l-2.1-6.887L40 7.043h-6.75L31 0l-2.25 7.043H22l5.55 4.07L25.45 18zm22 0L58.55 18l-2.1-6.887L62 7.043h-6.75L53 0l-2.25 7.043H44l5.55 4.07L47.45 18zm22 0L80.55 18l-2.1-6.887L84 7.043h-6.75L75 0l-2.25 7.043H66l5.55 4.07L69.45 18z"/><path fill="#9da6ac" d="M97 13.774L102.55 18l-2.1-6.887 5.55-4.07h-6.75L97 0l-2.25 7.043H88l5.55 4.07L91.45 18z"/></svg>